<svg xmlns="http://www.w3.org/2000/svg" width="640" height="480" viewBox="0 0 640 480">
  <rect width="640" height="480" fill="#ffffff"/>

  <!-- Taegeuk -->
  <g transform="translate(320 240) rotate(-33)">
    <circle r="108" fill="#cd2e3a"/>
    <path d="M0-108a108 108 0 0 0 0 216a54 54 0 0 1 0-108a54 54 0 0 0 0-108z" fill="#0047a0"/>
    <circle cy="-54" r="54" fill="#0047a0"/>
    <circle cy="54" r="54" fill="#cd2e3a"/>
  </g>

  <!-- Trigrams (simplified) -->
  <g fill="#000000">
    <!-- upper-left (geon) -->
    <g transform="translate(120 112) rotate(-33)">
      <rect x="-64" y="-38" width="128" height="12" rx="2"/>
      <rect x="-64" y="-6" width="128" height="12" rx="2"/>
      <rect x="-64" y="26" width="128" height="12" rx="2"/>
    </g>

    <!-- lower-right (gon) -->
    <g transform="translate(520 368) rotate(-33)">
      <rect x="-64" y="-38" width="56" height="12" rx="2"/>
      <rect x="8" y="-38" width="56" height="12" rx="2"/>
      <rect x="-64" y="-6" width="56" height="12" rx="2"/>
      <rect x="8" y="-6" width="56" height="12" rx="2"/>
      <rect x="-64" y="26" width="56" height="12" rx="2"/>
      <rect x="8" y="26" width="56" height="12" rx="2"/>
    </g>

    <!-- upper-right (gam) -->
    <g transform="translate(520 112) rotate(33)">
      <rect x="-64" y="-38" width="128" height="12" rx="2"/>
      <rect x="-64" y="-6" width="56" height="12" rx="2"/>
      <rect x="8" y="-6" width="56" height="12" rx="2"/>
      <rect x="-64" y="26" width="128" height="12" rx="2"/>
    </g>

    <!-- lower-left (ri) -->
    <g transform="translate(120 368) rotate(33)">
      <rect x="-64" y="-38" width="56" height="12" rx="2"/>
      <rect x="8" y="-38" width="56" height="12" rx="2"/>
      <rect x="-64" y="-6" width="128" height="12" rx="2"/>
      <rect x="-64" y="26" width="56" height="12" rx="2"/>
      <rect x="8" y="26" width="56" height="12" rx="2"/>
    </g>
  </g>
</svg>
