<svg width="612" height="85" viewBox="0 0 612 85" fill="none" xmlns="http://www.w3.org/2000/svg">
<rect x="0.5" y="0.5" width="611" height="84" rx="4.5" stroke="#9747FF" stroke-dasharray="10 5"/>
<rect x="20.5" y="20.5" width="179" height="44" rx="7.5" fill="white"/>
<rect x="20.5" y="20.5" width="179" height="44" rx="7.5" stroke="#FF8C1A"/>
<path d="M72.0605 34.6738V38.3652H74.2754V39.9824H72.0605V43.9375H70.1094V34.6738H72.0605ZM62.0059 35.6055V37.7676H65.7148V35.6055H67.6484V43.0938H60.0723V35.6055H62.0059ZM62.0059 41.5469H65.7148V39.2793H62.0059V41.5469ZM72.166 44.7109V46.2754H63.7637V48.7891H72.4648V50.3359H61.8125V44.7109H72.166ZM84.5059 36.3613V37.9082H81.1133C81.1221 39.6748 82.5107 41.4062 85.0508 42.0742L84.1367 43.6035C82.2822 43.0938 80.9287 42.0039 80.1816 40.5977C79.4609 42.1357 78.1074 43.3398 76.209 43.9023L75.2949 42.4082C77.7998 41.6523 79.1533 39.7979 79.1621 37.9082H75.7695V36.3613H79.1621V34.6211H81.1309V36.3613H84.5059ZM88.3203 34.6914V44.0254H86.3516V34.6914H88.3203ZM88.3203 44.7461V50.3711H77.7734V44.7461H88.3203ZM79.707 46.3105V48.7891H86.4043V46.3105H79.707ZM107.445 34.6738V39.1387H109.678V40.7559H107.445V46.1699H105.494V34.6738H107.445ZM102.699 35.9922V37.5566H97.5137V41.8809C100.502 41.8896 102.163 41.7842 104.053 41.3887L104.264 42.9707C102.189 43.375 100.326 43.4805 96.8633 43.4805H95.5801V35.9922H102.699ZM108.078 48.666V50.248H97.2676V44.957H99.2188V48.666H108.078ZM114.811 35.834C116.964 35.834 118.555 37.627 118.836 40.5273H121.859V34.6738H123.793V50.582H121.859V42.1094H118.854C118.643 45.1768 117.025 47.0664 114.811 47.0664C112.42 47.0664 110.732 44.9043 110.732 41.4414C110.732 38.0137 112.42 35.834 114.811 35.834ZM114.811 37.5918C113.492 37.5918 112.596 39.0156 112.613 41.4414C112.596 43.8848 113.492 45.3086 114.811 45.3086C116.129 45.3086 117.008 43.8848 117.025 41.4414C117.008 39.0156 116.129 37.5918 114.811 37.5918ZM143.498 34.6738V42.9883H141.564V34.6738H143.498ZM137.627 43.6387V47.6113H134.111V48.9121C136.001 48.8945 137.196 48.8242 138.611 48.5605L138.805 50.002C137.117 50.3359 135.729 50.3711 133.232 50.3711H132.213V46.2402H135.711V45.0977H132.213V43.6387H137.627ZM143.498 43.6387V50.4766H141.6V45.2031H138.26V43.6387H143.498ZM134.797 35.3594C137.205 35.3418 138.998 36.8535 139.016 38.9629C138.998 41.0898 137.205 42.584 134.797 42.584C132.371 42.584 130.578 41.0898 130.578 38.9629C130.578 36.8535 132.371 35.3418 134.797 35.3594ZM134.797 36.959C133.461 36.959 132.477 37.7324 132.477 38.9629C132.477 40.1758 133.461 41.002 134.797 41.002C136.133 41.002 137.117 40.1758 137.117 38.9629C137.117 37.7324 136.133 36.959 134.797 36.959ZM159.125 34.6738V50.5645H157.156V34.6738H159.125ZM154.379 36.3613C154.379 41.0898 152.551 45.1152 146.979 47.752L145.959 46.1875C150.116 44.21 152.05 41.5205 152.393 37.9082H146.768V36.3613H154.379Z" fill="#2E2E2E"/>
<rect x="216.5" y="20.5" width="179" height="44" rx="7.5" fill="#FFE6BF"/>
<rect x="216.5" y="20.5" width="179" height="44" rx="7.5" stroke="#FF8C1A"/>
<path d="M268.061 34.6738V38.3652H270.275V39.9824H268.061V43.9375H266.109V34.6738H268.061ZM258.006 35.6055V37.7676H261.715V35.6055H263.648V43.0938H256.072V35.6055H258.006ZM258.006 41.5469H261.715V39.2793H258.006V41.5469ZM268.166 44.7109V46.2754H259.764V48.7891H268.465V50.3359H257.812V44.7109H268.166ZM280.506 36.3613V37.9082H277.113C277.122 39.6748 278.511 41.4062 281.051 42.0742L280.137 43.6035C278.282 43.0938 276.929 42.0039 276.182 40.5977C275.461 42.1357 274.107 43.3398 272.209 43.9023L271.295 42.4082C273.8 41.6523 275.153 39.7979 275.162 37.9082H271.77V36.3613H275.162V34.6211H277.131V36.3613H280.506ZM284.32 34.6914V44.0254H282.352V34.6914H284.32ZM284.32 44.7461V50.3711H273.773V44.7461H284.32ZM275.707 46.3105V48.7891H282.404V46.3105H275.707ZM303.445 34.6738V39.1387H305.678V40.7559H303.445V46.1699H301.494V34.6738H303.445ZM298.699 35.9922V37.5566H293.514V41.8809C296.502 41.8896 298.163 41.7842 300.053 41.3887L300.264 42.9707C298.189 43.375 296.326 43.4805 292.863 43.4805H291.58V35.9922H298.699ZM304.078 48.666V50.248H293.268V44.957H295.219V48.666H304.078ZM310.811 35.834C312.964 35.834 314.555 37.627 314.836 40.5273H317.859V34.6738H319.793V50.582H317.859V42.1094H314.854C314.643 45.1768 313.025 47.0664 310.811 47.0664C308.42 47.0664 306.732 44.9043 306.732 41.4414C306.732 38.0137 308.42 35.834 310.811 35.834ZM310.811 37.5918C309.492 37.5918 308.596 39.0156 308.613 41.4414C308.596 43.8848 309.492 45.3086 310.811 45.3086C312.129 45.3086 313.008 43.8848 313.025 41.4414C313.008 39.0156 312.129 37.5918 310.811 37.5918ZM339.498 34.6738V42.9883H337.564V34.6738H339.498ZM333.627 43.6387V47.6113H330.111V48.9121C332.001 48.8945 333.196 48.8242 334.611 48.5605L334.805 50.002C333.117 50.3359 331.729 50.3711 329.232 50.3711H328.213V46.2402H331.711V45.0977H328.213V43.6387H333.627ZM339.498 43.6387V50.4766H337.6V45.2031H334.26V43.6387H339.498ZM330.797 35.3594C333.205 35.3418 334.998 36.8535 335.016 38.9629C334.998 41.0898 333.205 42.584 330.797 42.584C328.371 42.584 326.578 41.0898 326.578 38.9629C326.578 36.8535 328.371 35.3418 330.797 35.3594ZM330.797 36.959C329.461 36.959 328.477 37.7324 328.477 38.9629C328.477 40.1758 329.461 41.002 330.797 41.002C332.133 41.002 333.117 40.1758 333.117 38.9629C333.117 37.7324 332.133 36.959 330.797 36.959ZM355.125 34.6738V50.5645H353.156V34.6738H355.125ZM350.379 36.3613C350.379 41.0898 348.551 45.1152 342.979 47.752L341.959 46.1875C346.116 44.21 348.05 41.5205 348.393 37.9082H342.768V36.3613H350.379Z" fill="#2E2E2E"/>
<rect x="412.5" y="20.5" width="179" height="44" rx="7.5" fill="#FF8C1A"/>
<rect x="412.5" y="20.5" width="179" height="44" rx="7.5" stroke="#FF8C1A"/>
<path d="M464.061 34.6738V38.3652H466.275V39.9824H464.061V43.9375H462.109V34.6738H464.061ZM454.006 35.6055V37.7676H457.715V35.6055H459.648V43.0938H452.072V35.6055H454.006ZM454.006 41.5469H457.715V39.2793H454.006V41.5469ZM464.166 44.7109V46.2754H455.764V48.7891H464.465V50.3359H453.812V44.7109H464.166ZM476.506 36.3613V37.9082H473.113C473.122 39.6748 474.511 41.4062 477.051 42.0742L476.137 43.6035C474.282 43.0938 472.929 42.0039 472.182 40.5977C471.461 42.1357 470.107 43.3398 468.209 43.9023L467.295 42.4082C469.8 41.6523 471.153 39.7979 471.162 37.9082H467.77V36.3613H471.162V34.6211H473.131V36.3613H476.506ZM480.32 34.6914V44.0254H478.352V34.6914H480.32ZM480.32 44.7461V50.3711H469.773V44.7461H480.32ZM471.707 46.3105V48.7891H478.404V46.3105H471.707ZM499.445 34.6738V39.1387H501.678V40.7559H499.445V46.1699H497.494V34.6738H499.445ZM494.699 35.9922V37.5566H489.514V41.8809C492.502 41.8896 494.163 41.7842 496.053 41.3887L496.264 42.9707C494.189 43.375 492.326 43.4805 488.863 43.4805H487.58V35.9922H494.699ZM500.078 48.666V50.248H489.268V44.957H491.219V48.666H500.078ZM506.811 35.834C508.964 35.834 510.555 37.627 510.836 40.5273H513.859V34.6738H515.793V50.582H513.859V42.1094H510.854C510.643 45.1768 509.025 47.0664 506.811 47.0664C504.42 47.0664 502.732 44.9043 502.732 41.4414C502.732 38.0137 504.42 35.834 506.811 35.834ZM506.811 37.5918C505.492 37.5918 504.596 39.0156 504.613 41.4414C504.596 43.8848 505.492 45.3086 506.811 45.3086C508.129 45.3086 509.008 43.8848 509.025 41.4414C509.008 39.0156 508.129 37.5918 506.811 37.5918ZM535.498 34.6738V42.9883H533.564V34.6738H535.498ZM529.627 43.6387V47.6113H526.111V48.9121C528.001 48.8945 529.196 48.8242 530.611 48.5605L530.805 50.002C529.117 50.3359 527.729 50.3711 525.232 50.3711H524.213V46.2402H527.711V45.0977H524.213V43.6387H529.627ZM535.498 43.6387V50.4766H533.6V45.2031H530.26V43.6387H535.498ZM526.797 35.3594C529.205 35.3418 530.998 36.8535 531.016 38.9629C530.998 41.0898 529.205 42.584 526.797 42.584C524.371 42.584 522.578 41.0898 522.578 38.9629C522.578 36.8535 524.371 35.3418 526.797 35.3594ZM526.797 36.959C525.461 36.959 524.477 37.7324 524.477 38.9629C524.477 40.1758 525.461 41.002 526.797 41.002C528.133 41.002 529.117 40.1758 529.117 38.9629C529.117 37.7324 528.133 36.959 526.797 36.959ZM551.125 34.6738V50.5645H549.156V34.6738H551.125ZM546.379 36.3613C546.379 41.0898 544.551 45.1152 538.979 47.752L537.959 46.1875C542.116 44.21 544.05 41.5205 544.393 37.9082H538.768V36.3613H546.379Z" fill="white"/>
</svg>
